<svg xmlns="http://www.w3.org/2000/svg" viewBox="0 0 100 125" x="0px" y="0px"><title>Artboard 51</title><g data-name="Layer 1"><path d="M50.5,55.5v-11a.5.5,0,0,0-1,0v11a.5.5,0,0,0,1,0Z"/><path d="M39,33a.49971.49971,0,0,0-.5.5v33a.5.5,0,0,0,1,0v-33A.49971.49971,0,0,0,39,33Z"/><path d="M28.5,17a.5.5,0,0,0-1,0V83a.5.5,0,0,0,1,0Z"/><path d="M16.5,33.5v33a.5.5,0,0,0,1,0v-33a.5.5,0,0,0-1,0Z"/><path d="M6,56a.49971.49971,0,0,0,.5-.5v-11a.5.5,0,0,0-1,0v11A.49971.49971,0,0,0,6,56Z"/><path d="M61.5,66.5v-33a.5.5,0,0,0-1,0v33a.5.5,0,0,0,1,0Z"/><path d="M72.5,83V17a.5.5,0,0,0-1,0V83a.5.5,0,0,0,1,0Z"/><path d="M82.5,33.5v33a.5.5,0,0,0,1,0v-33a.5.5,0,0,0-1,0Z"/><path d="M94.5,44.5a.5.5,0,0,0-1,0v11a.5.5,0,0,0,1,0Z"/></g>
</svg>